<svg width="102" height="32" viewBox="0 0 102 32" fill="none" xmlns="http://www.w3.org/2000/svg">
<path fill-rule="evenodd" clip-rule="evenodd" d="M45.7147 27.3043C50.1795 27.3043 53.8267 23.6885 53.8267 19.1923C53.8267 14.6961 50.1795 11.0803 45.7147 11.0803C43.6081 11.0803 41.9103 11.9607 40.7469 13.3441V5.04346H37.6342V19.1923C37.6342 23.6885 41.25 27.3043 45.7147 27.3043ZM45.7147 24.3174C42.8535 24.3174 40.684 22.0535 40.684 19.1923C40.684 16.3311 42.8849 14.0673 45.7147 14.0673C48.5759 14.0673 50.7454 16.3311 50.7454 19.1923C50.7454 22.0535 48.6074 24.3174 45.7147 24.3174ZM69.3905 19.6011C69.3905 24.8833 66.4978 27.3043 62.4732 27.3043C58.4487 27.3043 55.556 24.8833 55.556 19.6011V11.3318H58.6373V19.6011C58.6373 22.8081 60.0208 24.3173 62.4732 24.3173C64.9257 24.3173 66.3092 22.8081 66.3092 19.6011V11.3318H69.3905V19.6011ZM79.6388 27.1471V24.1601C77.4064 23.9715 76.2431 22.588 76.2431 19.6011V14.3188H79.6388V11.3318H76.2431V5.70373H73.1618V11.3318H70.8351V14.3188H73.1618V19.6325C73.1932 24.6946 75.8658 26.9899 79.6388 27.1471ZM85.2913 7.27584C85.2913 8.34486 84.4739 9.16235 83.4363 9.16235C82.3672 9.16235 81.5498 8.34486 81.5498 7.27584C81.5498 6.20681 82.3672 5.38932 83.4363 5.38932C84.4739 5.38932 85.2913 6.20681 85.2913 7.27584ZM84.9769 11.3318H81.8956V27.0528H84.9769V11.3318ZM90.2592 21.1417V27.0528H87.1779V5.04346H90.2592V17.3058L96.3904 11.3318H100.321L94.2838 17.3372L101.358 27.0528H97.931L92.1771 19.2866L90.2592 21.1417Z" fill="#1A232C"/>
<path d="M0 0V26.4348C0 29.5084 2.49163 32 5.56522 32H20.5217C23.5953 32 26.087 29.5084 26.087 26.4348V0H0Z" fill="#0DCCAC"/>
<path fill-rule="evenodd" clip-rule="evenodd" d="M8.35483 5.12891V6.3463C8.35483 8.89675 10.4224 10.9643 12.9728 10.9643C15.5233 10.9643 17.5908 8.89675 17.5908 6.3463V5.12891H20.0256V6.3463C20.0256 10.2414 16.868 13.3991 12.9728 13.3991C9.07768 13.3991 5.92004 10.2414 5.92004 6.3463V5.12891H8.35483Z" fill="#EDF2F7"/>
</svg>
