<svg width="92" height="32" viewBox="0 0 92 32" fill="none" xmlns="http://www.w3.org/2000/svg">
<path fill-rule="evenodd" clip-rule="evenodd" d="M11.6158 32C18.0339 32 23.2768 26.8023 23.2768 20.339C23.2768 13.8757 18.0339 8.67797 11.6158 8.67797C8.58757 8.67797 6.14689 9.9435 4.47458 11.9322V0H0V20.339C0 26.8023 5.19774 32 11.6158 32ZM11.6158 27.7065C7.50276 27.7065 4.38411 24.4522 4.38411 20.3392C4.38411 16.2262 7.54796 12.972 11.6158 12.972C15.7287 12.972 18.8474 16.2262 18.8474 20.3392C18.8474 24.4522 15.7739 27.7065 11.6158 27.7065ZM45.6497 20.9266C45.6497 28.5198 41.4915 32 35.7062 32C29.9209 32 25.7627 28.5198 25.7627 20.9266V9.03955H30.1921V20.9266C30.1921 25.5367 32.1808 27.7062 35.7062 27.7062C39.2316 27.7062 41.2203 25.5367 41.2203 20.9266V9.03955H45.6497V20.9266ZM60.3817 31.7738V27.48C57.1726 27.2088 55.5003 25.2201 55.5003 20.9263V13.3331H60.3817V9.03929H55.5003V0.948893H51.071V9.03929H47.7263V13.3331H51.071V20.9715C51.1161 28.2483 54.958 31.5478 60.3817 31.7738ZM68.5072 3.20926C68.5072 4.74598 67.3321 5.92112 65.8405 5.92112C64.3038 5.92112 63.1287 4.74598 63.1287 3.20926C63.1287 1.67254 64.3038 0.497396 65.8405 0.497396C67.3321 0.497396 68.5072 1.67254 68.5072 3.20926ZM68.0552 9.03955H63.6258V31.6384H68.0552V9.03955ZM75.6485 23.1412V31.6384H71.2192V0H75.6485V17.6271L84.4621 9.03955H90.1118L81.4338 17.6723L91.6033 31.6384H86.6768L78.4056 20.4746L75.6485 23.1412Z" fill="#2D3748"/>
</svg>
