<svg data-v-423bf9ae="" xmlns="http://www.w3.org/2000/svg" viewBox="0 0 296 90" class="iconLeft"><!----><!----><!----><g data-v-423bf9ae="" id="deb9aa08-e15c-41ed-a57f-f69d6bb41988" fill="#000000" transform="matrix(5.836575485636349,0,0,5.836575485636349,114.08794318856779,0.23346251939574358)"><path d="M8.60 9.96L8.60 9.96L8.60 9.96Q8.60 11.25 7.66 11.96L7.66 11.96L7.66 11.96Q6.73 12.67 5.06 12.67L5.06 12.67L1.15 12.67L1.15 3.04L4.65 3.04L4.65 3.04Q8.04 3.04 8.04 5.38L8.04 5.38L8.04 5.38Q8.04 6.23 7.56 6.82L7.56 6.82L7.56 6.82Q7.08 7.40 6.21 7.59L6.21 7.59L6.21 7.59Q7.36 7.73 7.98 8.36L7.98 8.36L7.98 8.36Q8.60 9.00 8.60 9.96ZM6.73 5.54L6.73 5.54L6.73 5.54Q6.73 4.76 6.19 4.42L6.19 4.42L6.19 4.42Q5.66 4.09 4.65 4.09L4.65 4.09L2.45 4.09L2.45 7.14L4.65 7.14L4.65 7.14Q5.69 7.14 6.21 6.74L6.21 6.74L6.21 6.74Q6.73 6.35 6.73 5.54ZM7.28 9.86L7.28 9.86L7.28 9.86Q7.28 8.16 4.89 8.16L4.89 8.16L2.45 8.16L2.45 11.63L4.99 11.63L4.99 11.63Q6.19 11.63 6.73 11.18L6.73 11.18L6.73 11.18Q7.28 10.74 7.28 9.86ZM10.25 5.28L11.48 5.28L11.48 9.97L11.48 9.97Q11.48 10.70 11.63 11.10L11.63 11.10L11.63 11.10Q11.77 11.50 12.09 11.68L12.09 11.68L12.09 11.68Q12.40 11.86 13.01 11.86L13.01 11.86L13.01 11.86Q13.90 11.86 14.41 11.25L14.41 11.25L14.41 11.25Q14.92 10.64 14.92 9.56L14.92 9.56L14.92 5.28L16.15 5.28L16.15 11.09L16.15 11.09Q16.15 12.39 16.19 12.67L16.19 12.67L15.03 12.67L15.03 12.67Q15.03 12.64 15.02 12.49L15.02 12.49L15.02 12.49Q15.01 12.34 15.00 12.14L15.00 12.14L15.00 12.14Q14.99 11.95 14.98 11.41L14.98 11.41L14.96 11.41L14.96 11.41Q14.53 12.17 13.98 12.49L13.98 12.49L13.98 12.49Q13.42 12.81 12.59 12.81L12.59 12.81L12.59 12.81Q11.38 12.81 10.81 12.21L10.81 12.21L10.81 12.21Q10.25 11.60 10.25 10.21L10.25 10.21L10.25 5.28ZM20.91 11.71L20.91 12.62L20.91 12.62Q20.30 12.78 19.67 12.78L19.67 12.78L19.67 12.78Q18.19 12.78 18.19 11.11L18.19 11.11L18.19 6.17L17.34 6.17L17.34 5.28L18.24 5.28L18.60 3.62L19.42 3.62L19.42 5.28L20.79 5.28L20.79 6.17L19.42 6.17L19.42 10.84L19.42 10.84Q19.42 11.38 19.60 11.59L19.60 11.59L19.60 11.59Q19.77 11.81 20.20 11.81L20.20 11.81L20.20 11.81Q20.45 11.81 20.91 11.71L20.91 11.71ZM23.18 3.71L21.95 3.71L21.95 2.53L23.18 2.53L23.18 3.71ZM23.18 12.67L21.95 12.67L21.95 5.28L23.18 5.28L23.18 12.67ZM31.14 12.67L29.70 12.67L27.20 9.30L26.30 10.04L26.30 12.67L25.07 12.67L25.07 2.53L26.30 2.53L26.30 8.87L29.54 5.28L30.99 5.28L27.99 8.46L31.14 12.67Z"></path></g><!----><g data-v-423bf9ae="" id="f3fe8375-8f7b-4622-a77c-4f06afed507f" transform="matrix(1.2,0,0,1.2,-8.999999904632567,-14.599999809265135)" stroke="none" fill="#62B88F"><path d="M83.394 13.946A1.502 1.502 0 0 0 82 13H19a1.5 1.5 0 0 0-1.371.891l-9.5 21.365a1.503 1.503 0 0 0-.129.609v1.093c0 5.334 3.901 9.954 9 11.251V74c0 7.458 6.542 14 14 14h39c7.168 0 13-6.28 13-14V48.337c5.201-1.088 9-5.695 9-11.379v-1.089c0-.19-.036-.378-.106-.554l-8.5-21.369zM88.54 35H72.304L67.78 16h13.203l7.557 19zM49 16v19H31.78l4.524-19H49zm15.696 0l4.524 19H52V16h12.696zM48.967 37c-.023 4.736-3.875 8.583-8.607 8.583-4.737 0-8.592-3.847-8.615-8.583h17.222zm20.156 0c-.023 4.736-3.854 8.583-8.561 8.583-4.725 0-8.568-3.847-8.592-8.583h17.153zM19.975 16H33.22l-4.524 19h-17.17l8.449-19zm-8.973 21H28.74c-.024 4.657-4.075 8.583-8.869 8.583-.233 0-.463-.017-.692-.035l-.201-.011c-4.394-.45-7.953-4.173-7.976-8.537zM37 85V65.996C37 62.564 40.656 60 43.926 60h12.148C59.453 60 62 62.578 62 65.996V85H37zm43-11c0 6.065-4.486 11-10 11h-5V65.996C65 60.951 61.079 57 56.074 57H43.926C39.231 57 34 60.694 34 65.996V85h-3c-5.757 0-11-5.243-11-11V48.583c.03 0 .059-.006.089-.007a11.67 11.67 0 0 0 1.467-.117c.039-.005.076-.014.114-.02.485-.076.961-.178 1.426-.312.032-.009.062-.021.093-.03.469-.139.927-.304 1.372-.497l.074-.035c.448-.198.882-.421 1.3-.671.019-.011.036-.023.054-.035.421-.255.827-.533 1.213-.835l.036-.03c.389-.307.76-.636 1.108-.987l.02-.021c.351-.355.681-.731.984-1.127l.009-.012c.306-.4.588-.818.841-1.253 1.985 3.569 5.795 5.989 10.159 5.989 4.329 0 8.113-2.385 10.108-5.912 1.993 3.527 5.771 5.912 10.095 5.912 4.305 0 8.068-2.378 10.059-5.896.241.429.511.84.803 1.233.098.131.211.248.313.375.205.253.407.507.633.742.136.141.285.266.427.399.213.201.423.405.65.589.162.131.336.245.505.367.227.165.45.331.688.479.185.114.379.21.569.314.239.13.479.262.728.375.203.092.414.167.623.248.252.097.504.194.766.273.218.066.441.117.664.17.266.063.53.124.803.168.229.038.463.061.697.084.172.017.337.052.51.061V74zm1.584-28.475c-.029-.001-.056-.008-.084-.008-.092 0-.178.02-.264.035-.203.014-.404.031-.611.031-4.752 0-8.477-3.767-8.498-8.583h16.871c-.019 4.481-3.199 8.051-7.414 8.525z"></path></g><!----></svg>